<?xml version="1.0" standalone="no"?><svg xmlns:xlink="http://www.w3.org/1999/xlink" xmlns="http://www.w3.org/2000/svg" viewBox="0 0 1000 333.3259325044405" preserveAspectRatio="xMaxYMax slice"><g transform="scale(0.8880994671403197)"><rect x="0" y="0" width="1126" height="375.3333333333333" fill="#282828"/><rect x="26.273333333333333" y="7.506666666666667" width="3.753333333333332" height="3.753333333333332" fill="#282828"/><rect x="776.9399999999999" y="7.506666666666667" width="3.753333333333332" height="3.753333333333332" fill="#282828"/><g transform="translate(776.94,9.38) scale(0.094) rotate(0)"><path fill-rule="evenodd" clip-rule="evenodd" d="M10 20C15.5228 20 20 15.5228 20 10C20 4.47715 15.5228 0 10 0C4.47715 0 0 4.47715 0 10C0 15.5228 4.47715 20 10 20ZM10 17C13.866 17 17 13.866 17 10C17 6.13401 13.866 3 10 3C6.13401 3 3 6.13401 3 10C3 13.866 6.13401 17 10 17Z" fill="#d293e2"/></g><rect x="833.24" y="7.506666666666667" width="3.753333333333332" height="3.753333333333332" fill="#282828"/><g transform="translate(833.24,9.38) scale(0.094) rotate(0)"><path fill-rule="evenodd" clip-rule="evenodd" d="M10 20C15.5228 20 20 15.5228 20 10C20 4.47715 15.5228 0 10 0C4.47715 0 0 4.47715 0 10C0 15.5228 4.47715 20 10 20ZM10 17C13.866 17 17 13.866 17 10C17 6.13401 13.866 3 10 3C6.13401 3 3 6.13401 3 10C3 13.866 6.13401 17 10 17Z" fill="#43302d"/></g><rect x="119.89047466666666" y="26.057141333333334" width="4.185717333333331" height="4.185717333333331" fill="#282828"/><g transform="translate(121.98,26.06) scale(0.1045) rotate(0)"><path fill-rule="evenodd" clip-rule="evenodd" d="M10 20C15.5228 20 20 15.5228 20 10C20 4.47715 15.5228 0 10 0C4.47715 0 0 4.47715 0 10C0 15.5228 4.47715 20 10 20ZM10 17C13.866 17 17 13.866 17 10C17 6.13401 13.866 3 10 3C6.13401 3 3 6.13401 3 10C3 13.866 6.13401 17 10 17Z" fill="#2b312f"/></g><rect x="475.7725333333333" y="25.372533333333333" width="5.554933333333331" height="5.554933333333331" fill="#282828"/><rect x="588.3725333333333" y="25.372533333333333" width="5.554933333333331" height="5.554933333333331" fill="#282828"/><rect x="719.847296" y="25.480629333333333" width="5.338741333333331" height="5.338741333333331" fill="#282828"/><rect x="832.663488" y="25.696821333333332" width="4.906357333333332" height="4.906357333333332" fill="#282828"/><g transform="translate(832.66,25.7) scale(0.12250000000000001) rotate(0)"><path fill-rule="evenodd" clip-rule="evenodd" d="M10 20C15.5228 20 20 15.5228 20 10C20 4.47715 15.5228 0 10 0C4.47715 0 0 4.47715 0 10C0 15.5228 4.47715 20 10 20ZM10 17C13.866 17 17 13.866 17 10C17 6.13401 13.866 3 10 3C6.13401 3 3 6.13401 3 10C3 13.866 6.13401 17 10 17Z" fill="#6b5271"/></g><rect x="964.2823786666665" y="25.94904533333333" width="4.401909333333332" height="4.401909333333332" fill="#282828"/><rect x="100.97968" y="44.67968" width="4.473973333333333" height="4.473973333333333" fill="#282828"/><g transform="translate(100.98,46.92) scale(0.11200000000000002) rotate(0)"><path fill-rule="evenodd" clip-rule="evenodd" d="M10 20C15.5228 20 20 15.5228 20 10C20 4.47715 15.5228 0 10 0C4.47715 0 0 4.47715 0 10C0 15.5228 4.47715 20 10 20ZM10 17C13.866 17 17 13.866 17 10C17 6.13401 13.866 3 10 3C6.13401 3 3 6.13401 3 10C3 13.866 6.13401 17 10 17Z" fill="#55bc98"/></g><rect x="194.45269333333331" y="44.319359999999996" width="5.194613333333333" height="5.194613333333333" fill="#282828"/><rect x="437.482528" y="43.382528" width="7.068277333333331" height="7.068277333333331" fill="#282828"/><rect x="775.570784" y="43.670784" width="6.491765333333332" height="6.491765333333332" fill="#282828"/><rect x="794.4095146666666" y="43.742847999999995" width="6.347637333333331" height="6.347637333333331" fill="#282828"/><rect x="813.2482453333332" y="43.814912" width="6.203509333333331" height="6.203509333333331" fill="#282828"/><g transform="translate(816.35,43.81) scale(0.155) rotate(0)"><path fill-rule="evenodd" clip-rule="evenodd" d="M10 20C15.5228 20 20 15.5228 20 10C20 4.47715 15.5228 0 10 0C4.47715 0 0 4.47715 0 10C0 15.5228 4.47715 20 10 20ZM10 17C13.866 17 17 13.866 17 10C17 6.13401 13.866 3 10 3C6.13401 3 3 6.13401 3 10C3 13.866 6.13401 17 10 17Z" fill="#322f47"/></g><rect x="832.086976" y="43.886976" width="6.059381333333331" height="6.059381333333331" fill="#282828"/><rect x="926.2806293333333" y="44.247296" width="5.338741333333331" height="5.338741333333331" fill="#282828"/><rect x="156.775232" y="62.94189866666666" width="5.482869333333333" height="5.482869333333333" fill="#282828"/><g transform="translate(156.78,65.68) scale(0.137) rotate(0)"><path fill-rule="evenodd" clip-rule="evenodd" d="M10 20C15.5228 20 20 15.5228 20 10C20 4.47715 15.5228 0 10 0C4.47715 0 0 4.47715 0 10C0 15.5228 4.47715 20 10 20ZM10 17C13.866 17 17 13.866 17 10C17 6.13401 13.866 3 10 3C6.13401 3 3 6.13401 3 10C3 13.866 6.13401 17 10 17Z" fill="#544358"/></g><rect x="343.36093866666664" y="61.86093866666666" width="7.644789333333332" height="7.644789333333332" fill="#282828"/><rect x="455.3123626666667" y="61.212362666666664" width="8.941941333333332" height="8.941941333333332" fill="#282828"/><g transform="translate(455.31,61.21) scale(0.22349999999999998) rotate(0)"><path fill-rule="evenodd" clip-rule="evenodd" d="M10 20C15.5228 20 20 15.5228 20 10C20 4.47715 15.5228 0 10 0C4.47715 0 0 4.47715 0 10C0 15.5228 4.47715 20 10 20ZM10 17C13.866 17 17 13.866 17 10C17 6.13401 13.866 3 10 3C6.13401 3 3 6.13401 3 10C3 13.866 6.13401 17 10 17Z" fill="#395e51"/></g><rect x="492.73759999999993" y="61.10426666666666" width="9.158133333333332" height="9.158133333333332" fill="#282828"/><rect x="605.3376" y="61.10426666666666" width="9.158133333333332" height="9.158133333333332" fill="#282828"/><rect x="642.8709333333333" y="61.10426666666666" width="9.158133333333332" height="9.158133333333332" fill="#282828"/><rect x="737.1366506666667" y="61.53665066666667" width="8.293365333333332" height="8.293365333333332" fill="#282828"/><rect x="1039.1328533333333" y="63.26618666666666" width="4.834293333333331" height="4.834293333333331" fill="#282828"/><rect x="44.751744" y="82.28507733333333" width="4.329845333333331" height="4.329845333333331" fill="#282828"/><g transform="translate(46.92,82.29) scale(0.10800000000000001) rotate(0)"><path fill-rule="evenodd" clip-rule="evenodd" d="M10 20C15.5228 20 20 15.5228 20 10C20 4.47715 15.5228 0 10 0C4.47715 0 0 4.47715 0 10C0 15.5228 4.47715 20 10 20ZM10 17C13.866 17 17 13.866 17 10C17 6.13401 13.866 3 10 3C6.13401 3 3 6.13401 3 10C3 13.866 6.13401 17 10 17Z" fill="#9a493d"/></g><rect x="100.61936" y="81.85269333333333" width="5.194613333333333" height="5.194613333333333" fill="#282828"/><g transform="translate(103.22,81.85) scale(0.13) rotate(0)"><path fill-rule="evenodd" clip-rule="evenodd" d="M10 20C15.5228 20 20 15.5228 20 10C20 4.47715 15.5228 0 10 0C4.47715 0 0 4.47715 0 10C0 15.5228 4.47715 20 10 20ZM10 17C13.866 17 17 13.866 17 10C17 6.13401 13.866 3 10 3C6.13401 3 3 6.13401 3 10C3 13.866 6.13401 17 10 17Z" fill="#d5bb4e"/></g><rect x="623.2034666666666" y="78.97013333333334" width="10.959733333333332" height="10.959733333333332" fill="#282828"/><rect x="1038.9526933333332" y="81.85269333333333" width="5.194613333333333" height="5.194613333333333" fill="#282828"/><rect x="1095.6850773333333" y="82.28507733333333" width="4.329845333333331" height="4.329845333333331" fill="#282828"/><g transform="translate(1095.69,84.45) scale(0.10800000000000001) rotate(0)"><path fill-rule="evenodd" clip-rule="evenodd" d="M10 20C15.5228 20 20 15.5228 20 10C20 4.47715 15.5228 0 10 0C4.47715 0 0 4.47715 0 10C0 15.5228 4.47715 20 10 20ZM10 17C13.866 17 17 13.866 17 10C17 6.13401 13.866 3 10 3C6.13401 3 3 6.13401 3 10C3 13.866 6.13401 17 10 17Z" fill="#55ba97"/></g><rect x="119.02570666666666" y="100.25904" width="5.915253333333331" height="5.915253333333331" fill="#282828"/><rect x="360.6502933333333" y="97.91695999999999" width="10.599413333333331" height="10.599413333333331" fill="#282828"/><rect x="397.8233066666666" y="97.55664" width="11.320053333333332" height="11.320053333333332" fill="#282828"/><rect x="416.4098133333333" y="97.37648" width="11.680373333333332" height="11.680373333333332" fill="#282828"/><rect x="472.16933333333327" y="96.836" width="12.761333333333333" height="12.761333333333333" fill="#282828"/><rect x="603.536" y="96.836" width="12.761333333333333" height="12.761333333333333" fill="#282828"/><rect x="735.6233066666666" y="97.55664" width="11.320053333333332" height="11.320053333333332" fill="#282828"/><g transform="translate(735.62,97.56) scale(0.28300000000000003) rotate(0)"><path fill-rule="evenodd" clip-rule="evenodd" d="M10 20C15.5228 20 20 15.5228 20 10C20 4.47715 15.5228 0 10 0C4.47715 0 0 4.47715 0 10C0 15.5228 4.47715 20 10 20ZM10 17C13.866 17 17 13.866 17 10C17 6.13401 13.866 3 10 3C6.13401 3 3 6.13401 3 10C3 13.866 6.13401 17 10 17Z" fill="#3c353e"/></g><rect x="792.4637866666666" y="98.09711999999999" width="10.239093333333331" height="10.239093333333331" fill="#282828"/><g transform="translate(792.46,103.22) scale(0.256) rotate(0)"><path fill-rule="evenodd" clip-rule="evenodd" d="M10 20C15.5228 20 20 15.5228 20 10C20 4.47715 15.5228 0 10 0C4.47715 0 0 4.47715 0 10C0 15.5228 4.47715 20 10 20ZM10 17C13.866 17 17 13.866 17 10C17 6.13401 13.866 3 10 3C6.13401 3 3 6.13401 3 10C3 13.866 6.13401 17 10 17Z" fill="#38355c"/></g><rect x="1038.7725333333333" y="100.4392" width="5.554933333333331" height="5.554933333333331" fill="#282828"/><g transform="translate(1041.55,100.44) scale(0.13899999999999998) rotate(0)"><path fill-rule="evenodd" clip-rule="evenodd" d="M10 20C15.5228 20 20 15.5228 20 10C20 4.47715 15.5228 0 10 0C4.47715 0 0 4.47715 0 10C0 15.5228 4.47715 20 10 20ZM10 17C13.866 17 17 13.866 17 10C17 6.13401 13.866 3 10 3C6.13401 3 3 6.13401 3 10C3 13.866 6.13401 17 10 17Z" fill="#3d353f"/></g><g transform="translate(1041.55,103.22) scale(0.13899999999999998) rotate(0)"><path fill-rule="evenodd" clip-rule="evenodd" d="M10 20C15.5228 20 20 15.5228 20 10C20 4.47715 15.5228 0 10 0C4.47715 0 0 4.47715 0 10C0 15.5228 4.47715 20 10 20ZM10 17C13.866 17 17 13.866 17 10C17 6.13401 13.866 3 10 3C6.13401 3 3 6.13401 3 10C3 13.866 6.13401 17 10 17Z" fill="#396153"/></g><rect x="44.607616" y="119.67428266666666" width="4.618101333333334" height="4.618101333333334" fill="#282828"/><rect x="155.910464" y="118.37713066666666" width="7.212405333333333" height="7.212405333333333" fill="#282828"/><rect x="211.561888" y="117.72855466666667" width="8.509557333333333" height="8.509557333333333" fill="#282828"/><rect x="230.11236266666666" y="117.51236266666666" width="8.941941333333332" height="8.941941333333332" fill="#282828"/><rect x="378.51615999999996" y="115.78282666666667" width="12.401013333333331" height="12.401013333333331" fill="#282828"/><g transform="translate(378.52,115.78) scale(0.31) rotate(0)"><path fill-rule="evenodd" clip-rule="evenodd" d="M10 20C15.5228 20 20 15.5228 20 10C20 4.47715 15.5228 0 10 0C4.47715 0 0 4.47715 0 10C0 15.5228 4.47715 20 10 20ZM10 17C13.866 17 17 13.866 17 10C17 6.13401 13.866 3 10 3C6.13401 3 3 6.13401 3 10C3 13.866 6.13401 17 10 17Z" fill="#a375ae"/></g><g transform="translate(384.72,115.78) scale(0.31) rotate(0)"><path fill-rule="evenodd" clip-rule="evenodd" d="M10 20C15.5228 20 20 15.5228 20 10C20 4.47715 15.5228 0 10 0C4.47715 0 0 4.47715 0 10C0 15.5228 4.47715 20 10 20ZM10 17C13.866 17 17 13.866 17 10C17 6.13401 13.866 3 10 3C6.13401 3 3 6.13401 3 10C3 13.866 6.13401 17 10 17Z" fill="#3b6858"/></g><rect x="434.167584" y="115.13425066666666" width="13.698165333333332" height="13.698165333333332" fill="#282828"/><rect x="734.8666346666666" y="115.56663466666666" width="12.833397333333334" height="12.833397333333334" fill="#282828"/><rect x="981.6437973333333" y="118.37713066666666" width="7.212405333333333" height="7.212405333333333" fill="#282828"/><rect x="285.22330666666664" y="135.08997333333335" width="11.320053333333332" height="11.320053333333332" fill="#282828"/><rect x="489.13439999999997" y="132.56773333333334" width="16.364533333333334" height="16.364533333333334" fill="#282828"/><g transform="translate(489.13,132.57) scale(0.409) rotate(0)"><path fill-rule="evenodd" clip-rule="evenodd" d="M10 20C15.5228 20 20 15.5228 20 10C20 4.47715 15.5228 0 10 0C4.47715 0 0 4.47715 0 10C0 15.5228 4.47715 20 10 20ZM10 17C13.866 17 17 13.866 17 10C17 6.13401 13.866 3 10 3C6.13401 3 3 6.13401 3 10C3 13.866 6.13401 17 10 17Z" fill="#7d5d85"/></g><rect x="848.2233066666666" y="135.08997333333335" width="11.320053333333332" height="11.320053333333332" fill="#282828"/><rect x="905.2799786666666" y="135.84664533333333" width="9.806709333333332" height="9.806709333333332" fill="#282828"/><rect x="7.506666666666667" y="157.64" width="3.753333333333332" height="3.753333333333332" fill="#282828"/><rect x="62.94189866666667" y="156.775232" width="5.482869333333332" height="5.482869333333332" fill="#282828"/><rect x="676.1885226666666" y="150.721856" width="17.589621333333334" height="17.589621333333334" fill="#282828"/><rect x="752.4082133333333" y="151.87488" width="15.283573333333333" height="15.283573333333333" fill="#282828"/><g transform="translate(760.05,159.52) scale(0.382) rotate(0)"><path fill-rule="evenodd" clip-rule="evenodd" d="M10 20C15.5228 20 20 15.5228 20 10C20 4.47715 15.5228 0 10 0C4.47715 0 0 4.47715 0 10C0 15.5228 4.47715 20 10 20ZM10 17C13.866 17 17 13.866 17 10C17 6.13401 13.866 3 10 3C6.13401 3 3 6.13401 3 10C3 13.866 6.13401 17 10 17Z" fill="#de9bef"/></g><rect x="1076.3418986666668" y="156.775232" width="5.482869333333332" height="5.482869333333332" fill="#282828"/><rect x="118.30506666666666" y="174.60506666666663" width="7.356533333333331" height="7.356533333333331" fill="#282828"/><g transform="translate(121.98,174.61) scale(0.184) rotate(0)"><path fill-rule="evenodd" clip-rule="evenodd" d="M10 20C15.5228 20 20 15.5228 20 10C20 4.47715 15.5228 0 10 0C4.47715 0 0 4.47715 0 10C0 15.5228 4.47715 20 10 20ZM10 17C13.866 17 17 13.866 17 10C17 6.13401 13.866 3 10 3C6.13401 3 3 6.13401 3 10C3 13.866 6.13401 17 10 17Z" fill="#30443d"/></g><rect x="266.0362666666667" y="172.2029333333333" width="12.160799999999998" height="12.160799999999998" fill="#282828"/><rect x="358.36826666666667" y="170.70159999999998" width="15.163466666666665" height="15.163466666666665" fill="#282828"/><g transform="translate(358.37,170.7) scale(0.379) rotate(0)"><path fill-rule="evenodd" clip-rule="evenodd" d="M10 20C15.5228 20 20 15.5228 20 10C20 4.47715 15.5228 0 10 0C4.47715 0 0 4.47715 0 10C0 15.5228 4.47715 20 10 20ZM10 17C13.866 17 17 13.866 17 10C17 6.13401 13.866 3 10 3C6.13401 3 3 6.13401 3 10C3 13.866 6.13401 17 10 17Z" fill="#489278"/></g><g transform="translate(365.95,170.7) scale(0.379) rotate(0)"><path fill-rule="evenodd" clip-rule="evenodd" d="M10 20C15.5228 20 20 15.5228 20 10C20 4.47715 15.5228 0 10 0C4.47715 0 0 4.47715 0 10C0 15.5228 4.47715 20 10 20ZM10 17C13.866 17 17 13.866 17 10C17 6.13401 13.866 3 10 3C6.13401 3 3 6.13401 3 10C3 13.866 6.13401 17 10 17Z" fill="#4b9a7e"/></g><rect x="656.8333333333333" y="168.89999999999998" width="18.766666666666666" height="18.766666666666666" fill="#282828"/><rect x="733.1010666666666" y="170.10106666666664" width="16.364533333333334" height="16.364533333333334" fill="#282828"/><rect x="866.5696" y="172.2029333333333" width="12.160799999999998" height="12.160799999999998" fill="#282828"/><g transform="translate(872.65,178.28) scale(0.304) rotate(0)"><path fill-rule="evenodd" clip-rule="evenodd" d="M10 20C15.5228 20 20 15.5228 20 10C20 4.47715 15.5228 0 10 0C4.47715 0 0 4.47715 0 10C0 15.5228 4.47715 20 10 20ZM10 17C13.866 17 17 13.866 17 10C17 6.13401 13.866 3 10 3C6.13401 3 3 6.13401 3 10C3 13.866 6.13401 17 10 17Z" fill="#7e723b"/></g><rect x="904.7034666666666" y="172.80346666666665" width="10.959733333333332" height="10.959733333333332" fill="#282828"/><rect x="923.7704" y="173.1037333333333" width="10.3592" height="10.3592" fill="#282828"/><rect x="173.70426666666665" y="192.47093333333333" width="9.158133333333332" height="9.158133333333332" fill="#282828"/><rect x="210.63706666666667" y="191.8704" width="10.3592" height="10.3592" fill="#282828"/><g transform="translate(210.64,191.87) scale(0.259) rotate(0)"><path fill-rule="evenodd" clip-rule="evenodd" d="M10 20C15.5228 20 20 15.5228 20 10C20 4.47715 15.5228 0 10 0C4.47715 0 0 4.47715 0 10C0 15.5228 4.47715 20 10 20ZM10 17C13.866 17 17 13.866 17 10C17 6.13401 13.866 3 10 3C6.13401 3 3 6.13401 3 10C3 13.866 6.13401 17 10 17Z" fill="#874339"/></g><rect x="619.3" y="187.66666666666666" width="18.766666666666666" height="18.766666666666666" fill="#282828"/><rect x="752.168" y="189.16799999999998" width="15.764" height="15.764" fill="#282828"/><rect x="771.2349333333333" y="189.46826666666666" width="15.163466666666665" height="15.163466666666665" fill="#282828"/><g transform="translate(771.23,189.47) scale(0.379) rotate(0)"><path fill-rule="evenodd" clip-rule="evenodd" d="M10 20C15.5228 20 20 15.5228 20 10C20 4.47715 15.5228 0 10 0C4.47715 0 0 4.47715 0 10C0 15.5228 4.47715 20 10 20ZM10 17C13.866 17 17 13.866 17 10C17 6.13401 13.866 3 10 3C6.13401 3 3 6.13401 3 10C3 13.866 6.13401 17 10 17Z" fill="#292828"/></g><g transform="translate(771.23,197.05) scale(0.379) rotate(0)"><path fill-rule="evenodd" clip-rule="evenodd" d="M10 20C15.5228 20 20 15.5228 20 10C20 4.47715 15.5228 0 10 0C4.47715 0 0 4.47715 0 10C0 15.5228 4.47715 20 10 20ZM10 17C13.866 17 17 13.866 17 10C17 6.13401 13.866 3 10 3C6.13401 3 3 6.13401 3 10C3 13.866 6.13401 17 10 17Z" fill="#3e6f5e"/></g><rect x="7.506666666666667" y="213.94" width="3.753333333333332" height="3.753333333333332" fill="#282828"/><rect x="358.36826666666667" y="208.23493333333334" width="15.163466666666665" height="15.163466666666665" fill="#282828"/><g transform="translate(365.95,208.23) scale(0.379) rotate(0)"><path fill-rule="evenodd" clip-rule="evenodd" d="M10 20C15.5228 20 20 15.5228 20 10C20 4.47715 15.5228 0 10 0C4.47715 0 0 4.47715 0 10C0 15.5228 4.47715 20 10 20ZM10 17C13.866 17 17 13.866 17 10C17 6.13401 13.866 3 10 3C6.13401 3 3 6.13401 3 10C3 13.866 6.13401 17 10 17Z" fill="#372c2b"/></g><rect x="525.4666666666667" y="206.43333333333334" width="18.766666666666666" height="18.766666666666666" fill="#282828"/><rect x="1038.1719999999998" y="212.43866666666668" width="6.7559999999999985" height="6.7559999999999985" fill="#282828"/><g transform="translate(1038.17,215.82) scale(0.16899999999999998) rotate(0)"><path fill-rule="evenodd" clip-rule="evenodd" d="M10 20C15.5228 20 20 15.5228 20 10C20 4.47715 15.5228 0 10 0C4.47715 0 0 4.47715 0 10C0 15.5228 4.47715 20 10 20ZM10 17C13.866 17 17 13.866 17 10C17 6.13401 13.866 3 10 3C6.13401 3 3 6.13401 3 10C3 13.866 6.13401 17 10 17Z" fill="#483c4b"/></g><rect x="7.506666666666667" y="232.70666666666665" width="3.753333333333332" height="3.753333333333332" fill="#282828"/><rect x="192.29077333333333" y="229.82410666666667" width="9.518453333333332" height="9.518453333333332" fill="#282828"/><rect x="358.59646933333335" y="227.22980266666664" width="14.707061333333332" height="14.707061333333332" fill="#282828"/><g transform="translate(358.6,227.23) scale(0.3675) rotate(0)"><path fill-rule="evenodd" clip-rule="evenodd" d="M10 20C15.5228 20 20 15.5228 20 10C20 4.47715 15.5228 0 10 0C4.47715 0 0 4.47715 0 10C0 15.5228 4.47715 20 10 20ZM10 17C13.866 17 17 13.866 17 10C17 6.13401 13.866 3 10 3C6.13401 3 3 6.13401 3 10C3 13.866 6.13401 17 10 17Z" fill="#ed604c"/></g><rect x="432.510112" y="226.07677866666666" width="17.01310933333333" height="17.01310933333333" fill="#282828"/><g transform="translate(441.02,234.58) scale(0.4255) rotate(0)"><path fill-rule="evenodd" clip-rule="evenodd" d="M10 20C15.5228 20 20 15.5228 20 10C20 4.47715 15.5228 0 10 0C4.47715 0 0 4.47715 0 10C0 15.5228 4.47715 20 10 20ZM10 17C13.866 17 17 13.866 17 10C17 6.13401 13.866 3 10 3C6.13401 3 3 6.13401 3 10C3 13.866 6.13401 17 10 17Z" fill="#96473c"/></g><rect x="469.4669333333333" y="225.50026666666665" width="18.16613333333333" height="18.16613333333333" fill="#282828"/><g transform="translate(469.47,234.58) scale(0.454) rotate(0)"><path fill-rule="evenodd" clip-rule="evenodd" d="M10 20C15.5228 20 20 15.5228 20 10C20 4.47715 15.5228 0 10 0C4.47715 0 0 4.47715 0 10C0 15.5228 4.47715 20 10 20ZM10 17C13.866 17 17 13.866 17 10C17 6.13401 13.866 3 10 3C6.13401 3 3 6.13401 3 10C3 13.866 6.13401 17 10 17Z" fill="#dd9aee"/></g><rect x="488.23359999999997" y="225.50026666666665" width="18.16613333333333" height="18.16613333333333" fill="#282828"/><rect x="809.5729813333332" y="227.80631466666665" width="13.554037333333332" height="13.554037333333332" fill="#282828"/><rect x="923.9025173333333" y="229.53585066666665" width="10.094965333333333" height="10.094965333333333" fill="#282828"/><rect x="1000.122208" y="230.68887466666666" width="7.78891733333333" height="7.78891733333333" fill="#282828"/><rect x="100.07888" y="250.2122133333333" width="6.275573333333332" height="6.275573333333332" fill="#282828"/><g transform="translate(103.22,250.21) scale(0.157) rotate(0)"><path fill-rule="evenodd" clip-rule="evenodd" d="M10 20C15.5228 20 20 15.5228 20 10C20 4.47715 15.5228 0 10 0C4.47715 0 0 4.47715 0 10C0 15.5228 4.47715 20 10 20ZM10 17C13.866 17 17 13.866 17 10C17 6.13401 13.866 3 10 3C6.13401 3 3 6.13401 3 10C3 13.866 6.13401 17 10 17Z" fill="#c45444"/></g><g transform="translate(100.08,253.35) scale(0.157) rotate(0)"><path fill-rule="evenodd" clip-rule="evenodd" d="M10 20C15.5228 20 20 15.5228 20 10C20 4.47715 15.5228 0 10 0C4.47715 0 0 4.47715 0 10C0 15.5228 4.47715 20 10 20ZM10 17C13.866 17 17 13.866 17 10C17 6.13401 13.866 3 10 3C6.13401 3 3 6.13401 3 10C3 13.866 6.13401 17 10 17Z" fill="#302d31"/></g><rect x="155.622208" y="249.45554133333331" width="7.788917333333332" height="7.788917333333332" fill="#282828"/><g transform="translate(155.62,253.35) scale(0.1945) rotate(0)"><path fill-rule="evenodd" clip-rule="evenodd" d="M10 20C15.5228 20 20 15.5228 20 10C20 4.47715 15.5228 0 10 0C4.47715 0 0 4.47715 0 10C0 15.5228 4.47715 20 10 20ZM10 17C13.866 17 17 13.866 17 10C17 6.13401 13.866 3 10 3C6.13401 3 3 6.13401 3 10C3 13.866 6.13401 17 10 17Z" fill="#685f36"/></g><rect x="266.708864" y="247.9421973333333" width="10.81560533333333" height="10.81560533333333" fill="#282828"/><rect x="377.79551999999995" y="246.4288533333333" width="13.842293333333334" height="13.842293333333334" fill="#282828"/><rect x="489.13439999999997" y="245.1677333333333" width="16.364533333333334" height="16.364533333333334" fill="#282828"/><g transform="translate(497.32,253.35) scale(0.409) rotate(0)"><path fill-rule="evenodd" clip-rule="evenodd" d="M10 20C15.5228 20 20 15.5228 20 10C20 4.47715 15.5228 0 10 0C4.47715 0 0 4.47715 0 10C0 15.5228 4.47715 20 10 20ZM10 17C13.866 17 17 13.866 17 10C17 6.13401 13.866 3 10 3C6.13401 3 3 6.13401 3 10C3 13.866 6.13401 17 10 17Z" fill="#bc5243"/></g><rect x="545.4344" y="245.1677333333333" width="16.364533333333334" height="16.364533333333334" fill="#282828"/><rect x="582.9677333333333" y="245.1677333333333" width="16.364533333333334" height="16.364533333333334" fill="#282828"/><rect x="943.3177599999999" y="248.95109333333332" width="8.797813333333332" height="8.797813333333332" fill="#282828"/><g transform="translate(947.72,253.35) scale(0.22000000000000003) rotate(0)"><path fill-rule="evenodd" clip-rule="evenodd" d="M10 20C15.5228 20 20 15.5228 20 10C20 4.47715 15.5228 0 10 0C4.47715 0 0 4.47715 0 10C0 15.5228 4.47715 20 10 20ZM10 17C13.866 17 17 13.866 17 10C17 6.13401 13.866 3 10 3C6.13401 3 3 6.13401 3 10C3 13.866 6.13401 17 10 17Z" fill="#9b70a6"/></g><rect x="378.51615999999996" y="265.91616" width="12.401013333333331" height="12.401013333333331" fill="#282828"/><g transform="translate(384.72,272.12) scale(0.31) rotate(0)"><path fill-rule="evenodd" clip-rule="evenodd" d="M10 20C15.5228 20 20 15.5228 20 10C20 4.47715 15.5228 0 10 0C4.47715 0 0 4.47715 0 10C0 15.5228 4.47715 20 10 20ZM10 17C13.866 17 17 13.866 17 10C17 6.13401 13.866 3 10 3C6.13401 3 3 6.13401 3 10C3 13.866 6.13401 17 10 17Z" fill="#3c6858"/></g><rect x="546.3352" y="264.83520000000004" width="14.562933333333332" height="14.562933333333332" fill="#282828"/><rect x="1095.5409493333334" y="269.807616" width="4.618101333333334" height="4.618101333333334" fill="#282828"/><g transform="translate(1095.54,269.81) scale(0.1155) rotate(0)"><path fill-rule="evenodd" clip-rule="evenodd" d="M10 20C15.5228 20 20 15.5228 20 10C20 4.47715 15.5228 0 10 0C4.47715 0 0 4.47715 0 10C0 15.5228 4.47715 20 10 20ZM10 17C13.866 17 17 13.866 17 10C17 6.13401 13.866 3 10 3C6.13401 3 3 6.13401 3 10C3 13.866 6.13401 17 10 17Z" fill="#615935"/></g><g transform="translate(1097.85,269.81) scale(0.1155) rotate(0)"><path fill-rule="evenodd" clip-rule="evenodd" d="M10 20C15.5228 20 20 15.5228 20 10C20 4.47715 15.5228 0 10 0C4.47715 0 0 4.47715 0 10C0 15.5228 4.47715 20 10 20ZM10 17C13.866 17 17 13.866 17 10C17 6.13401 13.866 3 10 3C6.13401 3 3 6.13401 3 10C3 13.866 6.13401 17 10 17Z" fill="#45302d"/></g><rect x="119.02570666666666" y="287.92570666666666" width="5.915253333333331" height="5.915253333333331" fill="#282828"/><rect x="193.37173333333334" y="287.20506666666665" width="7.356533333333331" height="7.356533333333331" fill="#282828"/><rect x="267.71776" y="286.48442666666665" width="8.79781333333333" height="8.79781333333333" fill="#282828"/><rect x="342.0637866666666" y="285.76378666666665" width="10.239093333333331" height="10.239093333333331" fill="#282828"/><g transform="translate(342.06,290.88) scale(0.256) rotate(0)"><path fill-rule="evenodd" clip-rule="evenodd" d="M10 20C15.5228 20 20 15.5228 20 10C20 4.47715 15.5228 0 10 0C4.47715 0 0 4.47715 0 10C0 15.5228 4.47715 20 10 20ZM10 17C13.866 17 17 13.866 17 10C17 6.13401 13.866 3 10 3C6.13401 3 3 6.13401 3 10C3 13.866 6.13401 17 10 17Z" fill="#392d2b"/></g><g transform="translate(347.18,290.88) scale(0.256) rotate(0)"><path fill-rule="evenodd" clip-rule="evenodd" d="M10 20C15.5228 20 20 15.5228 20 10C20 4.47715 15.5228 0 10 0C4.47715 0 0 4.47715 0 10C0 15.5228 4.47715 20 10 20ZM10 17C13.866 17 17 13.866 17 10C17 6.13401 13.866 3 10 3C6.13401 3 3 6.13401 3 10C3 13.866 6.13401 17 10 17Z" fill="#5d51d3"/></g><rect x="360.6502933333333" y="285.58362666666665" width="10.599413333333331" height="10.599413333333331" fill="#282828"/><rect x="379.23679999999996" y="285.40346666666665" width="10.959733333333332" height="10.959733333333332" fill="#282828"/><rect x="735.6233066666666" y="285.22330666666664" width="11.320053333333332" height="11.320053333333332" fill="#282828"/><g transform="translate(735.62,285.22) scale(0.28300000000000003) rotate(0)"><path fill-rule="evenodd" clip-rule="evenodd" d="M10 20C15.5228 20 20 15.5228 20 10C20 4.47715 15.5228 0 10 0C4.47715 0 0 4.47715 0 10C0 15.5228 4.47715 20 10 20ZM10 17C13.866 17 17 13.866 17 10C17 6.13401 13.866 3 10 3C6.13401 3 3 6.13401 3 10C3 13.866 6.13401 17 10 17Z" fill="#926b9c"/></g><g transform="translate(735.62,290.88) scale(0.28300000000000003) rotate(0)"><path fill-rule="evenodd" clip-rule="evenodd" d="M10 20C15.5228 20 20 15.5228 20 10C20 4.47715 15.5228 0 10 0C4.47715 0 0 4.47715 0 10C0 15.5228 4.47715 20 10 20ZM10 17C13.866 17 17 13.866 17 10C17 6.13401 13.866 3 10 3C6.13401 3 3 6.13401 3 10C3 13.866 6.13401 17 10 17Z" fill="#bea849"/></g><rect x="925.0915733333333" y="287.02490666666665" width="7.716853333333333" height="7.716853333333333" fill="#282828"/><rect x="1019.8257066666666" y="287.92570666666666" width="5.915253333333331" height="5.915253333333331" fill="#282828"/><rect x="44.751744" y="307.4850773333333" width="4.329845333333331" height="4.329845333333331" fill="#282828"/><g transform="translate(44.75,307.49) scale(0.10800000000000001) rotate(0)"><path fill-rule="evenodd" clip-rule="evenodd" d="M10 20C15.5228 20 20 15.5228 20 10C20 4.47715 15.5228 0 10 0C4.47715 0 0 4.47715 0 10C0 15.5228 4.47715 20 10 20ZM10 17C13.866 17 17 13.866 17 10C17 6.13401 13.866 3 10 3C6.13401 3 3 6.13401 3 10C3 13.866 6.13401 17 10 17Z" fill="#b95143"/></g><rect x="249.5996693333333" y="305.8996693333333" width="7.500661333333332" height="7.500661333333332" fill="#282828"/><g transform="translate(249.6,309.65) scale(0.1875) rotate(0)"><path fill-rule="evenodd" clip-rule="evenodd" d="M10 20C15.5228 20 20 15.5228 20 10C20 4.47715 15.5228 0 10 0C4.47715 0 0 4.47715 0 10C0 15.5228 4.47715 20 10 20ZM10 17C13.866 17 17 13.866 17 10C17 6.13401 13.866 3 10 3C6.13401 3 3 6.13401 3 10C3 13.866 6.13401 17 10 17Z" fill="#443a47"/></g><rect x="268.222208" y="305.7555413333333" width="7.788917333333332" height="7.788917333333332" fill="#282828"/><rect x="379.95743999999996" y="304.8907733333333" width="9.518453333333332" height="9.518453333333332" fill="#282828"/><rect x="623.2034666666666" y="304.1701333333333" width="10.959733333333332" height="10.959733333333332" fill="#282828"/><rect x="641.9701333333333" y="304.1701333333333" width="10.959733333333332" height="10.959733333333332" fill="#282828"/><rect x="660.7367999999999" y="304.1701333333333" width="10.959733333333332" height="10.959733333333332" fill="#282828"/><rect x="755.2907733333333" y="304.8907733333333" width="9.518453333333332" height="9.518453333333332" fill="#282828"/><rect x="100.79952" y="325.99951999999996" width="4.834293333333331" height="4.834293333333331" fill="#282828"/><rect x="399.3366506666666" y="324.26998399999997" width="8.293365333333332" height="8.293365333333332" fill="#282828"/><g transform="translate(403.48,324.27) scale(0.20750000000000002) rotate(0)"><path fill-rule="evenodd" clip-rule="evenodd" d="M10 20C15.5228 20 20 15.5228 20 10C20 4.47715 15.5228 0 10 0C4.47715 0 0 4.47715 0 10C0 15.5228 4.47715 20 10 20ZM10 17C13.866 17 17 13.866 17 10C17 6.13401 13.866 3 10 3C6.13401 3 3 6.13401 3 10C3 13.866 6.13401 17 10 17Z" fill="#2d3a36"/></g><rect x="417.99522133333335" y="324.161888" width="8.509557333333333" height="8.509557333333333" fill="#282828"/><rect x="642.8709333333333" y="323.83759999999995" width="9.158133333333332" height="9.158133333333332" fill="#282828"/><rect x="869.2599893333334" y="325.02665599999995" width="6.780021333333332" height="6.780021333333332" fill="#282828"/><g transform="translate(872.65,325.03) scale(0.1695) rotate(0)"><path fill-rule="evenodd" clip-rule="evenodd" d="M10 20C15.5228 20 20 15.5228 20 10C20 4.47715 15.5228 0 10 0C4.47715 0 0 4.47715 0 10C0 15.5228 4.47715 20 10 20ZM10 17C13.866 17 17 13.866 17 10C17 6.13401 13.866 3 10 3C6.13401 3 3 6.13401 3 10C3 13.866 6.13401 17 10 17Z" fill="#c2ac4a"/></g><g transform="translate(872.65,328.42) scale(0.1695) rotate(0)"><path fill-rule="evenodd" clip-rule="evenodd" d="M10 20C15.5228 20 20 15.5228 20 10C20 4.47715 15.5228 0 10 0C4.47715 0 0 4.47715 0 10C0 15.5228 4.47715 20 10 20ZM10 17C13.866 17 17 13.866 17 10C17 6.13401 13.866 3 10 3C6.13401 3 3 6.13401 3 10C3 13.866 6.13401 17 10 17Z" fill="#f9634e"/></g><rect x="944.7590399999999" y="325.45903999999996" width="5.915253333333332" height="5.915253333333332" fill="#282828"/><rect x="44.895872" y="345.1625386666666" width="4.041589333333334" height="4.041589333333334" fill="#282828"/><rect x="250.53650133333332" y="344.36983466666663" width="5.626997333333332" height="5.626997333333332" fill="#282828"/><g transform="translate(250.54,347.18) scale(0.1405) rotate(0)"><path fill-rule="evenodd" clip-rule="evenodd" d="M10 20C15.5228 20 20 15.5228 20 10C20 4.47715 15.5228 0 10 0C4.47715 0 0 4.47715 0 10C0 15.5228 4.47715 20 10 20ZM10 17C13.866 17 17 13.866 17 10C17 6.13401 13.866 3 10 3C6.13401 3 3 6.13401 3 10C3 13.866 6.13401 17 10 17Z" fill="#5acba3"/></g><rect x="287.92570666666666" y="344.2257066666666" width="5.915253333333331" height="5.915253333333331" fill="#282828"/><g transform="translate(290.88,344.23) scale(0.148) rotate(0)"><path fill-rule="evenodd" clip-rule="evenodd" d="M10 20C15.5228 20 20 15.5228 20 10C20 4.47715 15.5228 0 10 0C4.47715 0 0 4.47715 0 10C0 15.5228 4.47715 20 10 20ZM10 17C13.866 17 17 13.866 17 10C17 6.13401 13.866 3 10 3C6.13401 3 3 6.13401 3 10C3 13.866 6.13401 17 10 17Z" fill="#4ea486"/></g><g transform="translate(287.93,347.18) scale(0.148) rotate(0)"><path fill-rule="evenodd" clip-rule="evenodd" d="M10 20C15.5228 20 20 15.5228 20 10C20 4.47715 15.5228 0 10 0C4.47715 0 0 4.47715 0 10C0 15.5228 4.47715 20 10 20ZM10 17C13.866 17 17 13.866 17 10C17 6.13401 13.866 3 10 3C6.13401 3 3 6.13401 3 10C3 13.866 6.13401 17 10 17Z" fill="#753e36"/></g><rect x="400.0933226666666" y="343.7933226666666" width="6.78002133333333" height="6.78002133333333" fill="#282828"/><rect x="493.63839999999993" y="343.5050666666666" width="7.356533333333331" height="7.356533333333331" fill="#282828"/><g transform="translate(493.64,343.51) scale(0.184) rotate(0)"><path fill-rule="evenodd" clip-rule="evenodd" d="M10 20C15.5228 20 20 15.5228 20 10C20 4.47715 15.5228 0 10 0C4.47715 0 0 4.47715 0 10C0 15.5228 4.47715 20 10 20ZM10 17C13.866 17 17 13.866 17 10C17 6.13401 13.866 3 10 3C6.13401 3 3 6.13401 3 10C3 13.866 6.13401 17 10 17Z" fill="#bfa949"/></g><rect x="587.4717333333333" y="343.5050666666666" width="7.356533333333331" height="7.356533333333331" fill="#282828"/><g transform="translate(587.47,343.51) scale(0.184) rotate(0)"><path fill-rule="evenodd" clip-rule="evenodd" d="M10 20C15.5228 20 20 15.5228 20 10C20 4.47715 15.5228 0 10 0C4.47715 0 0 4.47715 0 10C0 15.5228 4.47715 20 10 20ZM10 17C13.866 17 17 13.866 17 10C17 6.13401 13.866 3 10 3C6.13401 3 3 6.13401 3 10C3 13.866 6.13401 17 10 17Z" fill="#a275ad"/></g><rect x="888.603168" y="344.36983466666663" width="5.626997333333332" height="5.626997333333332" fill="#282828"/><rect x="26.23730133333333" y="364.03730133333335" width="3.825397333333333" height="3.825397333333333" fill="#282828"/><g transform="translate(28.15,365.95) scale(0.0955) rotate(0)"><path fill-rule="evenodd" clip-rule="evenodd" d="M10 20C15.5228 20 20 15.5228 20 10C20 4.47715 15.5228 0 10 0C4.47715 0 0 4.47715 0 10C0 15.5228 4.47715 20 10 20ZM10 17C13.866 17 17 13.866 17 10C17 6.13401 13.866 3 10 3C6.13401 3 3 6.13401 3 10C3 13.866 6.13401 17 10 17Z" fill="#2a2a29"/></g><rect x="82.42920533333333" y="363.92920533333336" width="4.041589333333334" height="4.041589333333334" fill="#282828"/><g transform="translate(82.43,363.93) scale(0.101) rotate(0)"><path fill-rule="evenodd" clip-rule="evenodd" d="M10 20C15.5228 20 20 15.5228 20 10C20 4.47715 15.5228 0 10 0C4.47715 0 0 4.47715 0 10C0 15.5228 4.47715 20 10 20ZM10 17C13.866 17 17 13.866 17 10C17 6.13401 13.866 3 10 3C6.13401 3 3 6.13401 3 10C3 13.866 6.13401 17 10 17Z" fill="#464089"/></g><rect x="475.7725333333333" y="363.1725333333333" width="5.554933333333331" height="5.554933333333331" fill="#282828"/><rect x="494.53919999999994" y="363.1725333333333" width="5.554933333333331" height="5.554933333333331" fill="#282828"/><rect x="588.3725333333333" y="363.1725333333333" width="5.554933333333331" height="5.554933333333331" fill="#282828"/><rect x="625.9058666666666" y="363.1725333333333" width="5.554933333333331" height="5.554933333333331" fill="#282828"/><rect x="682.2418986666665" y="363.20856533333335" width="5.482869333333332" height="5.482869333333332" fill="#282828"/><g transform="translate(684.98,363.21) scale(0.137) rotate(0)"><path fill-rule="evenodd" clip-rule="evenodd" d="M10 20C15.5228 20 20 15.5228 20 10C20 4.47715 15.5228 0 10 0C4.47715 0 0 4.47715 0 10C0 15.5228 4.47715 20 10 20ZM10 17C13.866 17 17 13.866 17 10C17 6.13401 13.866 3 10 3C6.13401 3 3 6.13401 3 10C3 13.866 6.13401 17 10 17Z" fill="#373357"/></g><g transform="translate(682.24,365.95) scale(0.137) rotate(0)"><path fill-rule="evenodd" clip-rule="evenodd" d="M10 20C15.5228 20 20 15.5228 20 10C20 4.47715 15.5228 0 10 0C4.47715 0 0 4.47715 0 10C0 15.5228 4.47715 20 10 20ZM10 17C13.866 17 17 13.866 17 10C17 6.13401 13.866 3 10 3C6.13401 3 3 6.13401 3 10C3 13.866 6.13401 17 10 17Z" fill="#4da284"/></g><rect x="983.0850773333332" y="363.78507733333333" width="4.329845333333331" height="4.329845333333331" fill="#282828"/><rect x="1020.6904746666667" y="363.85714133333335" width="4.185717333333331" height="4.185717333333331" fill="#282828"/><rect x="1039.4931733333333" y="363.8931733333333" width="4.113653333333332" height="4.113653333333332" fill="#282828"/><g transform="translate(1041.55,363.89) scale(0.10300000000000001) rotate(0)"><path fill-rule="evenodd" clip-rule="evenodd" d="M10 20C15.5228 20 20 15.5228 20 10C20 4.47715 15.5228 0 10 0C4.47715 0 0 4.47715 0 10C0 15.5228 4.47715 20 10 20ZM10 17C13.866 17 17 13.866 17 10C17 6.13401 13.866 3 10 3C6.13401 3 3 6.13401 3 10C3 13.866 6.13401 17 10 17Z" fill="#312f44"/></g><g transform="translate(1039.49,365.95) scale(0.10300000000000001) rotate(0)"><path fill-rule="evenodd" clip-rule="evenodd" d="M10 20C15.5228 20 20 15.5228 20 10C20 4.47715 15.5228 0 10 0C4.47715 0 0 4.47715 0 10C0 15.5228 4.47715 20 10 20ZM10 17C13.866 17 17 13.866 17 10C17 6.13401 13.866 3 10 3C6.13401 3 3 6.13401 3 10C3 13.866 6.13401 17 10 17Z" fill="#635a35"/></g></g></svg>